<svg width="433" height="433" viewBox="0 0 433 433" fill="none" xmlns="http://www.w3.org/2000/svg">
<path d="M216.215 25.1038C243.963 25.104 269.114 46.4829 287.335 81.1155C305.553 115.742 316.825 163.588 316.825 216.444C316.825 269.299 305.553 317.145 287.335 351.772C269.114 386.404 243.963 407.783 216.215 407.783C188.467 407.783 163.315 386.405 145.094 351.772C126.875 317.145 115.604 269.299 115.604 216.444C115.604 163.588 126.875 115.742 145.094 81.1155C163.315 46.4827 188.467 25.1038 216.215 25.1038Z" stroke="#3F83F8" stroke-width="0.25"/>
<path d="M407.805 216.257C407.804 244.005 386.426 269.156 351.793 287.377C317.166 305.595 269.32 316.867 216.465 316.867C163.609 316.867 115.764 305.595 81.1367 287.377C46.5041 269.156 25.1252 244.005 25.125 216.257C25.125 188.509 46.5039 163.357 81.1367 145.136C115.764 126.917 163.609 115.646 216.465 115.646C269.32 115.646 317.166 126.917 351.793 145.136C386.426 163.357 407.805 188.509 407.805 216.257Z" stroke="#3F83F8" stroke-width="0.25"/>
<path d="M80.9935 81.3238C100.614 61.7034 133.516 59.0361 170.889 70.6406C208.257 82.2432 250.059 108.105 287.433 145.479C324.808 182.854 350.669 224.656 362.272 262.023C373.877 299.397 371.209 332.298 351.589 351.919C331.968 371.54 299.066 374.208 261.692 362.603C224.325 351.001 182.523 325.139 145.148 287.765C107.774 250.39 81.9122 208.588 70.3096 171.22C58.7051 133.847 61.3728 100.945 80.9935 81.3238Z" stroke="#3F83F8" stroke-width="0.25"/>
<path d="M351.633 81.0138C371.254 100.635 373.921 133.536 362.316 170.91C350.714 208.277 324.852 250.079 287.478 287.454C250.103 324.828 208.301 350.69 170.934 362.292C133.56 373.897 100.659 371.23 81.0378 351.609C61.4171 331.988 58.7493 299.086 70.3539 261.713C81.9566 224.345 107.818 182.543 145.193 145.169C182.567 107.794 224.369 81.9325 261.737 70.3299C299.11 58.7253 332.012 61.3931 351.633 81.0138Z" stroke="#3F83F8" stroke-width="0.25"/>
<path d="M39.605 143.499C50.2238 117.863 79.6003 102.808 118.57 99.2272C157.533 95.6468 206.05 103.543 254.882 123.77C303.714 143.997 343.604 172.72 368.623 202.803C393.647 232.891 403.773 264.308 393.155 289.944C382.536 315.58 353.16 330.636 314.19 334.217C275.227 337.797 226.71 329.901 177.878 309.674C129.046 289.447 89.1556 260.724 64.1363 230.641C39.1128 200.553 28.9864 169.135 39.605 143.499Z" stroke="#3F83F8" stroke-width="0.25"/>
<path d="M289.524 39.6427C315.16 50.2615 330.215 79.6379 333.796 118.607C337.376 157.57 329.48 206.087 309.254 254.92C289.027 303.752 260.303 343.642 230.22 368.661C200.133 393.684 168.715 403.811 143.079 393.193C117.443 382.574 102.388 353.197 98.8066 314.228C95.2262 275.265 103.122 226.747 123.349 177.915C143.576 129.083 172.299 89.1932 202.382 64.1739C232.47 39.1504 263.889 29.024 289.524 39.6427Z" stroke="#3F83F8" stroke-width="0.25"/>
<path d="M39.7001 289.872C29.0817 264.237 39.2084 232.819 64.2317 202.731C89.251 172.648 129.141 143.925 177.973 123.698C226.805 103.471 275.322 95.5752 314.285 99.1556C353.255 102.737 382.631 117.792 393.25 143.427C403.869 169.063 393.742 200.482 368.719 230.569C343.7 260.652 303.809 289.376 254.977 309.603C206.145 329.829 157.628 337.725 118.665 334.145C79.6955 330.564 50.3188 315.508 39.7001 289.872Z" stroke="#3F83F8" stroke-width="0.25"/>
<path d="M142.983 39.7138C168.619 29.0954 200.037 39.2221 230.124 64.2454C260.207 89.2647 288.931 129.155 309.158 177.987C329.385 226.819 337.28 275.336 333.7 314.299C330.119 353.269 315.064 382.645 289.428 393.264C263.793 403.882 232.374 393.756 202.286 368.732C172.204 343.713 143.48 303.823 123.253 254.991C103.026 206.159 95.1303 157.642 98.7107 118.679C102.292 79.7092 117.348 50.3325 142.983 39.7138Z" stroke="#3F83F8" stroke-width="0.25"/>
<path d="M207.867 25.2948C235.588 24.0847 261.648 44.3462 281.362 78.151C301.074 111.95 314.422 159.259 316.727 212.064C319.033 264.869 309.859 313.161 293.168 348.55C276.475 383.944 252.28 406.4 224.559 407.61C196.837 408.821 170.777 388.559 151.062 354.754C131.351 320.955 118.003 273.646 115.697 220.841C113.392 168.036 122.566 119.744 139.256 84.3555C155.95 48.9609 180.145 26.5051 207.867 25.2948Z" stroke="#3F83F8" stroke-width="0.25"/>
<path d="M407.615 207.91C408.825 235.631 388.563 261.691 354.759 281.405C320.959 301.117 273.651 314.465 220.846 316.77C168.041 319.076 119.749 309.902 84.3601 293.211C48.9656 276.518 26.51 252.323 25.2994 224.602C24.0891 196.88 44.3505 170.82 78.1556 151.105C111.955 131.394 159.263 118.046 212.069 115.74C264.874 113.435 313.165 122.609 348.554 139.299C383.949 155.993 406.405 180.188 407.615 207.91Z" stroke="#3F83F8" stroke-width="0.25"/>
<path d="M75.2268 87.36C93.973 66.9023 126.727 62.8025 164.571 72.7657C202.409 82.7274 245.3 106.741 284.269 142.45C323.238 178.158 350.898 218.793 364.12 255.618C377.343 292.45 376.114 325.437 357.368 345.895C338.622 366.353 305.867 370.453 268.023 360.49C230.185 350.528 187.294 326.514 148.325 290.806C109.356 255.097 81.6958 214.463 68.4742 177.637C55.2505 140.805 56.4805 107.818 75.2268 87.36Z" stroke="#3F83F8" stroke-width="0.25"/>
<path d="M345.596 75.2451C366.054 93.9913 370.154 126.745 360.191 164.589C350.229 202.427 326.215 245.318 290.507 284.287C254.798 323.256 214.164 350.916 177.338 364.138C140.506 377.362 107.52 376.132 87.0617 357.386C66.6038 338.64 62.5034 305.885 72.4667 268.041C82.4284 230.203 106.442 187.313 142.151 148.344C177.859 109.374 218.494 81.7141 255.319 68.4925C292.151 55.2688 325.138 56.4989 345.596 75.2451Z" stroke="#3F83F8" stroke-width="0.25"/>
<path d="M36.5908 151.282C46.0813 125.207 74.7731 108.885 113.549 103.608C152.319 98.3312 201.134 104.103 250.802 122.181C300.47 140.259 341.575 167.215 367.883 196.178C394.195 225.145 405.682 256.091 396.192 282.166C386.702 308.24 358.01 324.563 319.233 329.841C280.464 335.117 231.648 329.345 181.98 311.268C132.313 293.19 91.2075 266.234 64.8998 237.271C38.5877 208.303 27.1005 177.356 36.5908 151.282Z" stroke="#3F83F8" stroke-width="0.25"/>
<path d="M281.743 36.6226C307.818 46.1131 324.14 74.8049 329.417 113.581C334.694 152.351 328.922 201.166 310.844 250.834C292.767 300.502 265.81 341.607 236.847 367.915C207.88 394.227 176.934 405.714 150.859 396.224C124.785 386.733 108.462 358.042 103.184 319.265C97.9079 280.495 103.68 231.68 121.758 182.012C139.835 132.344 166.792 91.2392 195.754 64.9315C224.722 38.6195 255.669 27.1322 281.743 36.6226Z" stroke="#3F83F8" stroke-width="0.25"/>
<path d="M43.0696 297.512C31.3431 272.364 40.0897 240.534 63.7768 209.383C87.4601 178.238 126.059 147.802 173.963 125.464C221.866 103.126 269.992 93.1215 309.075 94.999C348.163 96.8768 378.168 110.636 389.895 135.784C401.622 160.932 392.876 192.763 369.188 223.913C345.505 255.059 306.906 285.495 259.003 307.833C211.099 330.17 162.973 340.175 123.891 338.298C84.8019 336.42 54.7964 322.66 43.0696 297.512Z" stroke="#3F83F8" stroke-width="0.25"/>
<path d="M135.343 43.0857C160.491 31.3592 192.321 40.1058 223.471 63.7929C254.617 87.4762 285.053 126.075 307.391 173.979C329.728 221.882 339.733 270.009 337.856 309.091C335.978 348.179 322.218 378.184 297.07 389.911C271.922 401.638 240.092 392.892 208.941 369.204C177.796 345.521 147.36 306.922 125.022 259.019C102.684 211.115 92.6796 162.989 94.5571 123.907C96.4349 84.818 110.195 54.8125 135.343 43.0857Z" stroke="#3F83F8" stroke-width="0.25"/>
<path d="M199.538 25.8506C227.18 23.4325 254.099 42.538 275.269 75.4507C296.436 108.358 311.835 155.039 316.442 207.694C321.048 260.348 313.989 308.994 298.858 345.077C283.725 381.166 260.533 404.656 232.89 407.074C205.248 409.493 178.329 390.387 157.158 357.474C135.991 324.567 120.592 277.886 115.986 225.231C111.379 172.577 118.438 123.931 133.569 87.8478C148.703 51.7588 171.895 28.269 199.538 25.8506Z" stroke="#3F83F8" stroke-width="0.25"/>
<path d="M407.061 199.578C409.48 227.22 390.374 254.139 357.461 275.309C324.554 296.476 277.873 311.875 225.219 316.482C172.564 321.089 123.918 314.03 87.8351 298.898C51.7462 283.765 28.2566 260.573 25.838 232.931C23.4196 205.288 42.5251 178.369 75.438 157.199C108.345 136.032 155.027 120.633 207.681 116.026C260.335 111.419 308.981 118.478 345.064 133.609C381.153 148.743 404.643 171.936 407.061 199.578Z" stroke="#3F83F8" stroke-width="0.25"/>
<path d="M69.7306 93.6421C87.5667 72.3862 120.111 66.8615 158.353 75.1645C196.59 83.4663 240.487 105.586 280.977 139.561C321.466 173.536 350.873 212.925 365.688 249.139C380.506 285.359 380.716 318.368 362.88 339.624C345.044 360.88 312.5 366.405 274.257 358.102C236.021 349.8 192.123 327.681 151.634 293.706C111.144 259.731 81.7376 220.342 66.9223 184.128C52.1046 147.908 51.8946 114.898 69.7306 93.6421Z" stroke="#3F83F8" stroke-width="0.25"/>
<path d="M339.315 69.7453C360.571 87.5813 366.095 120.125 357.792 158.368C349.491 196.604 327.371 240.502 293.396 280.991C259.421 321.481 220.032 350.887 183.818 365.703C147.598 380.52 114.589 380.731 93.333 362.895C72.0769 345.059 66.5516 312.515 74.8547 274.272C83.1565 236.035 105.276 192.138 139.251 151.648C173.226 111.159 212.615 81.7523 248.829 66.937C285.049 52.1193 318.059 51.9093 339.315 69.7453Z" stroke="#3F83F8" stroke-width="0.25"/>
<path d="M33.921 159.188C42.2651 132.724 70.2176 115.166 108.727 108.202C147.229 101.239 196.25 104.877 246.659 120.771C297.068 136.665 339.31 161.802 366.856 189.59C394.406 217.382 407.233 247.798 398.889 274.262C390.545 300.725 362.592 318.284 324.083 325.248C285.58 332.211 236.56 328.573 186.151 312.679C135.741 296.785 93.4998 271.648 65.9538 243.86C38.4032 216.068 25.577 185.651 33.921 159.188Z" stroke="#3F83F8" stroke-width="0.25"/>
<path d="M273.837 33.9444C300.301 42.2885 317.859 70.2411 324.823 108.75C331.785 147.253 328.148 196.273 312.254 246.683C296.36 297.092 271.222 339.333 243.435 366.879C215.642 394.43 185.227 407.256 158.763 398.912C132.3 390.569 114.741 362.616 107.777 324.107C100.814 285.604 104.451 236.583 120.345 186.174C136.239 135.765 161.377 93.5232 189.165 65.9772C216.957 38.4267 247.373 25.6005 273.837 33.9444Z" stroke="#3F83F8" stroke-width="0.25"/>
<path d="M46.7718 304.996C33.9595 280.383 41.3094 248.202 63.6152 216.048C85.9174 183.899 123.152 151.809 170.036 127.403C216.919 102.997 264.563 90.9023 303.69 91.0732C342.823 91.2442 373.4 103.682 386.213 128.294C399.025 152.907 391.676 185.088 369.37 217.243C347.068 249.392 309.833 281.483 262.949 305.888C216.066 330.294 168.422 342.389 129.295 342.218C90.1615 342.047 59.5844 329.609 46.7718 304.996Z" stroke="#3F83F8" stroke-width="0.25"/>
<path d="M127.857 46.7869C152.47 33.9747 184.651 41.3246 216.805 63.6303C248.954 85.9325 281.045 123.167 305.451 170.051C329.856 216.934 341.951 264.578 341.78 303.705C341.609 342.839 329.171 373.415 304.559 386.228C279.946 399.04 247.765 391.691 215.61 369.385C183.462 347.083 151.371 309.848 126.965 262.965C102.559 216.081 90.4644 168.437 90.6354 129.31C90.8064 90.1766 103.245 59.5995 127.857 46.7869Z" stroke="#3F83F8" stroke-width="0.25"/>
<path d="M191.24 26.7689C218.751 23.1473 246.477 41.0605 269.063 73.0184C291.645 104.971 309.066 150.936 315.965 203.34C322.864 255.743 317.934 304.65 304.391 341.359C290.846 378.074 268.7 402.553 241.19 406.175C213.68 409.797 185.953 391.884 163.367 359.925C140.784 327.973 123.364 282.007 116.465 229.604C109.566 177.201 114.496 128.293 128.039 91.5846C141.584 54.8698 163.73 30.3907 191.24 26.7689Z" stroke="#3F83F8" stroke-width="0.25"/>
<path d="M406.144 191.279C409.766 218.789 391.852 246.516 359.894 269.102C327.942 291.684 281.977 309.104 229.573 316.003C177.17 322.903 128.262 317.972 91.5537 304.429C54.839 290.884 30.3602 268.739 26.7381 241.229C23.1163 213.718 41.0294 185.991 72.9875 163.405C104.94 140.823 150.905 123.402 203.309 116.503C255.712 109.604 304.619 114.535 341.328 128.077C378.043 141.622 402.522 163.768 406.144 191.279Z" stroke="#3F83F8" stroke-width="0.25"/>
<path d="M64.5134 100.158C81.4053 78.1444 113.677 71.2054 152.246 77.8324C190.808 84.4584 235.628 104.642 277.561 136.819C319.494 168.995 350.591 207.064 366.972 242.598C383.355 278.137 385.005 311.105 368.114 333.119C351.222 355.133 318.949 362.072 280.381 355.445C241.819 348.819 196.998 328.635 155.065 296.459C113.132 264.282 82.0355 226.213 65.6547 190.68C49.2712 155.141 47.6215 122.172 64.5134 100.158Z" stroke="#3F83F8" stroke-width="0.25"/>
<path d="M332.797 64.5251C354.81 81.417 361.749 113.689 355.122 152.257C348.496 190.82 328.312 235.64 296.136 277.573C263.959 319.506 225.89 350.603 190.357 366.983C154.818 383.367 121.85 385.017 99.836 368.125C77.822 351.233 70.8825 318.961 77.5096 280.392C84.1356 241.83 104.32 197.01 136.496 155.077C168.672 113.144 206.741 82.0472 242.275 65.6664C277.814 49.2829 310.783 47.6333 332.797 64.5251Z" stroke="#3F83F8" stroke-width="0.25"/>
<path d="M31.5956 167.203C38.7774 140.401 65.9374 121.64 104.106 113.003C142.268 104.368 191.401 105.863 242.455 119.543C293.51 133.223 336.808 156.495 365.54 183.054C394.276 209.618 408.417 239.446 401.236 266.248C394.054 293.05 366.894 311.812 328.725 320.449C290.563 329.084 241.43 327.589 190.376 313.909C139.321 300.229 96.0231 276.957 67.2912 250.398C38.5546 223.834 24.4139 194.006 31.5956 167.203Z" stroke="#3F83F8" stroke-width="0.25"/>
<path d="M265.822 31.6141C292.624 38.796 311.385 65.956 320.022 104.125C328.658 142.287 327.162 191.42 313.482 242.474C299.802 293.529 276.531 336.826 249.971 365.558C223.407 394.295 193.58 408.436 166.777 401.254C139.975 394.073 121.214 366.912 112.577 328.744C103.941 290.581 105.437 241.449 119.117 190.394C132.797 139.34 156.068 96.0416 182.628 67.3098C209.192 38.5732 239.02 24.4324 265.822 31.6141Z" stroke="#3F83F8" stroke-width="0.25"/>
<path d="M50.7948 312.312C36.9211 288.282 42.8603 255.811 63.7423 222.714C84.621 189.623 120.421 155.939 166.195 129.511C211.969 103.083 259.04 88.9222 298.137 87.3863C337.241 85.8502 368.331 96.9421 382.205 120.972C396.079 145.003 390.14 177.474 369.258 210.571C348.379 243.662 312.58 277.346 266.806 303.774C221.031 330.202 173.96 344.363 134.863 345.899C95.7593 347.435 64.6687 336.343 50.7948 312.312Z" stroke="#3F83F8" stroke-width="0.25"/>
<path d="M120.543 50.8119C144.573 36.9382 177.044 42.8774 210.141 63.7594C243.232 84.638 276.916 120.438 303.344 166.212C329.772 211.986 343.933 259.057 345.469 298.155C347.005 337.258 335.913 368.348 311.883 382.222C287.852 396.096 255.381 390.157 222.284 369.275C189.193 348.396 155.509 312.597 129.081 266.823C102.653 221.049 88.492 173.977 86.9561 134.88C85.42 95.7764 96.5126 64.6858 120.543 50.8119Z" stroke="#3F83F8" stroke-width="0.25"/>
<path d="M182.991 28.0477C210.318 23.2295 238.799 39.9162 262.757 70.8585C286.712 101.796 306.121 146.957 315.299 199.01C324.477 251.062 321.685 300.138 309.756 337.403C297.826 374.674 276.769 400.095 249.443 404.914C222.117 409.732 193.635 393.045 169.676 362.103C145.721 331.165 126.313 286.004 117.134 233.952C107.956 181.899 110.748 132.823 122.677 95.5585C134.608 58.2878 155.665 32.866 182.991 28.0477Z" stroke="#3F83F8" stroke-width="0.25"/>
<path d="M404.866 183.028C409.684 210.354 392.997 238.835 362.055 262.794C331.117 286.748 285.956 306.157 233.904 315.335C181.851 324.514 132.775 321.721 95.5104 309.793C58.2398 297.862 32.8183 276.805 27.9998 249.479C23.1814 222.153 39.8679 193.671 70.8105 169.712C101.748 145.758 146.909 126.349 198.962 117.171C251.014 107.992 300.09 110.785 337.355 122.713C374.626 134.644 400.047 155.701 404.866 183.028Z" stroke="#3F83F8" stroke-width="0.25"/>
<path d="M59.5835 106.895C75.4992 84.1659 107.438 75.8258 146.258 80.7642C185.073 85.7018 230.731 103.912 274.028 134.228C317.324 164.545 350.052 201.221 367.967 236.006C385.885 270.797 388.972 303.662 373.056 326.391C357.141 349.121 325.202 357.462 286.381 352.523C247.566 347.586 201.908 329.376 158.612 299.059C115.315 268.743 82.5874 232.066 64.6723 197.281C46.7542 162.491 43.668 129.625 59.5835 106.895Z" stroke="#3F83F8" stroke-width="0.25"/>
<path d="M326.06 59.5936C348.789 75.5092 357.129 107.448 352.191 146.269C347.254 185.083 329.044 230.741 298.727 274.038C268.41 317.334 231.734 350.062 196.949 367.977C162.159 385.895 129.294 388.982 106.564 373.066C83.8342 357.151 75.4935 325.212 80.432 286.391C85.3696 247.576 103.579 201.918 133.896 158.622C164.213 115.325 200.889 82.5974 235.674 64.6823C270.465 46.7642 303.33 43.678 326.06 59.5936Z" stroke="#3F83F8" stroke-width="0.25"/>
<path d="M29.6226 175.312C35.6285 148.222 61.9444 128.295 99.6998 118.001C137.449 107.709 186.6 107.06 238.203 118.5C289.806 129.94 334.077 151.301 363.94 176.582C393.808 201.867 409.237 231.049 403.231 258.139C397.226 285.23 370.91 305.158 333.154 315.452C295.404 325.743 246.253 326.392 194.651 314.952C143.048 303.512 98.7763 282.152 68.9132 256.871C39.0452 231.585 23.6169 202.403 29.6226 175.312Z" stroke="#3F83F8" stroke-width="0.25"/>
<path d="M257.71 29.6353C284.8 35.6413 304.728 61.9571 315.021 99.7126C325.313 137.462 325.962 186.613 314.522 238.216C303.082 289.818 281.722 334.09 256.44 363.953C231.155 393.821 201.973 409.249 174.883 403.244C147.793 397.238 127.865 370.922 117.571 333.167C107.279 295.417 106.63 246.266 118.07 194.663C129.51 143.061 150.871 98.7889 176.152 68.9259C201.437 39.0579 230.62 23.6296 257.71 29.6353Z" stroke="#3F83F8" stroke-width="0.25"/>
<path d="M55.1341 319.446C40.2255 296.043 44.7427 263.344 64.1611 229.369C83.5765 195.398 117.873 160.184 162.451 131.785C207.028 103.386 253.437 87.1848 292.43 83.945C331.429 80.7046 362.974 90.4299 377.883 113.832C392.792 137.234 388.275 169.934 368.856 203.91C349.441 237.88 315.145 273.094 270.567 301.494C225.989 329.893 179.58 346.094 140.587 349.334C101.588 352.574 70.0431 342.848 55.1341 319.446Z" stroke="#3F83F8" stroke-width="0.25"/>
<path d="M113.408 55.1524C136.81 40.2438 169.51 44.761 203.485 64.1794C237.456 83.5948 272.67 117.891 301.069 162.469C329.468 207.047 345.669 253.456 348.909 292.449C352.149 331.448 342.424 362.992 319.022 377.901C295.619 392.81 262.92 388.293 228.944 368.875C194.973 349.459 159.759 315.163 131.36 270.585C102.961 226.007 86.7602 179.598 83.5203 140.606C80.28 101.606 90.0058 70.0614 113.408 55.1524Z" stroke="#3F83F8" stroke-width="0.25"/>
<path d="M174.807 29.6856C201.897 23.6802 231.079 39.1086 256.365 68.9764C281.646 98.8395 303.006 143.111 314.446 194.714C325.886 246.316 325.237 295.468 314.945 333.217C304.652 370.973 284.724 397.288 257.634 403.294C230.544 409.3 201.361 393.872 176.076 364.004C150.795 334.141 129.434 289.869 117.994 238.266C106.554 186.664 107.203 137.512 117.495 99.7631C127.789 62.0074 147.717 35.6914 174.807 29.6856Z" stroke="#3F83F8" stroke-width="0.25"/>
<path d="M403.228 174.84C409.234 201.93 393.805 231.112 363.937 256.398C334.074 281.679 289.802 303.039 238.2 314.479C186.597 325.919 137.446 325.27 99.6967 314.978C61.9412 304.685 35.6254 284.757 29.6195 257.667C23.6138 230.577 39.0421 201.394 68.9101 176.109C98.7732 150.828 143.045 129.467 194.648 118.027C246.25 106.587 295.401 107.236 333.151 117.528C370.906 127.822 397.222 147.75 403.228 174.84Z" stroke="#3F83F8" stroke-width="0.25"/>
<path d="M54.9537 113.841C69.8627 90.4393 101.407 80.714 140.406 83.9543C179.399 87.1942 225.808 103.395 270.386 131.794C314.964 160.194 349.26 195.408 368.675 229.378C388.094 263.354 392.611 296.053 377.702 319.455C362.793 342.857 331.249 352.583 292.249 349.343C253.256 346.103 206.847 329.902 162.27 301.503C117.692 273.104 83.3955 237.89 63.9801 203.919C44.5615 169.943 40.0447 137.244 54.9537 113.841Z" stroke="#3F83F8" stroke-width="0.25"/>
<path d="M319.114 54.961C342.516 69.87 352.241 101.415 349.001 140.414C345.761 179.406 329.56 225.815 301.161 270.393C272.762 314.971 237.548 349.267 203.577 368.683C169.601 388.101 136.902 392.618 113.5 377.71C90.0977 362.801 80.3719 331.256 83.6123 292.257C86.8521 253.264 103.053 206.855 131.452 162.277C159.851 117.699 195.065 83.4029 229.036 63.9875C263.012 44.5689 295.711 40.0521 319.114 54.961Z" stroke="#3F83F8" stroke-width="0.25"/>
<path d="M28.0064 183.5C32.8249 156.174 58.2465 135.117 95.5171 123.187C132.782 111.258 181.858 108.466 233.91 117.644C285.963 126.822 331.124 146.231 362.061 170.186C393.004 194.144 409.69 222.625 404.872 249.952C400.054 277.278 374.632 298.335 337.362 310.266C300.097 322.194 251.021 324.987 198.968 315.809C146.916 306.63 101.754 287.221 70.8171 263.267C39.8746 239.308 23.188 210.826 28.0064 183.5Z" stroke="#3F83F8" stroke-width="0.25"/>
<path d="M249.526 28.0125C276.852 32.8311 297.909 58.2527 309.839 95.5232C321.768 132.788 324.56 181.864 315.382 233.916C306.204 285.969 286.795 331.13 262.84 362.068C238.882 393.01 210.401 409.697 183.074 404.878C155.748 400.06 134.691 374.638 122.76 337.368C110.831 300.103 108.039 251.027 117.217 198.974C126.396 146.922 145.805 101.761 169.759 70.8232C193.718 39.8807 222.2 23.1941 249.526 28.0125Z" stroke="#3F83F8" stroke-width="0.25"/>
<path d="M59.7775 326.383C43.8622 303.654 46.9488 270.789 64.8668 235.998C82.7819 201.213 115.51 164.537 158.806 134.22C202.103 103.904 247.761 85.6938 286.575 80.7562C325.396 75.8178 357.335 84.1578 373.25 106.887C389.166 129.617 386.08 162.483 368.162 197.273C350.246 232.058 317.519 268.735 274.222 299.051C230.926 329.368 185.267 347.578 146.453 352.515C107.632 357.454 75.693 349.113 59.7775 326.383Z" stroke="#3F83F8" stroke-width="0.25"/>
<path d="M106.469 59.7995C129.199 43.8842 162.064 46.9708 196.854 64.8887C231.639 82.8039 268.315 115.532 298.632 158.828C328.949 202.125 347.159 247.783 352.096 286.597C357.035 325.418 348.694 357.357 325.965 373.272C303.235 389.188 270.37 386.102 235.579 368.184C200.794 350.268 164.118 317.541 133.801 274.244C103.484 230.948 85.2746 185.289 80.337 146.475C75.3986 107.654 83.7392 75.715 106.469 59.7995Z" stroke="#3F83F8" stroke-width="0.25"/>
<path d="M166.699 31.6789C193.502 24.4974 223.329 38.6383 249.893 67.3748C276.453 96.1066 299.724 139.405 313.404 190.459C327.084 241.514 328.58 290.646 319.944 328.809C311.307 366.977 292.546 394.137 265.744 401.319C238.942 408.501 209.114 394.36 182.55 365.623C155.99 336.892 132.719 293.594 119.039 242.539C105.359 191.485 103.863 142.352 112.499 104.19C121.136 66.0208 139.897 38.8606 166.699 31.6789Z" stroke="#3F83F8" stroke-width="0.25"/>
<path d="M401.235 166.731C408.416 193.534 394.275 223.361 365.539 249.925C336.807 276.485 293.509 299.756 242.455 313.436C191.4 327.116 142.268 328.612 104.105 319.976C65.9366 311.339 38.7766 292.578 31.5948 265.776C24.4131 238.974 38.5538 209.146 67.2904 182.582C96.0223 156.022 139.32 132.751 190.375 119.071C241.429 105.391 290.562 103.895 328.724 112.531C366.893 121.168 394.053 139.929 401.235 166.731Z" stroke="#3F83F8" stroke-width="0.25"/>
<path d="M50.6327 120.982C64.5067 96.9516 95.5969 85.8596 134.7 87.3957C173.797 88.9316 220.869 103.093 266.643 129.521C312.417 155.948 348.217 189.633 369.095 222.724C389.978 255.82 395.917 288.291 382.043 312.322C368.169 336.352 337.078 347.445 297.975 345.908C258.878 344.372 211.806 330.211 166.032 303.784C120.258 277.356 84.4584 243.671 63.5797 210.58C42.6976 177.484 36.7587 145.012 50.6327 120.982Z" stroke="#3F83F8" stroke-width="0.25"/>
<path d="M311.971 50.6351C336.001 64.5092 347.093 95.5994 345.557 134.703C344.021 173.8 329.86 220.871 303.432 266.645C277.004 312.42 243.32 348.219 210.229 369.098C177.132 389.98 144.661 395.919 120.631 382.045C96.6005 368.171 85.5079 337.081 87.0441 297.977C88.58 258.88 102.741 211.809 129.169 166.035C155.597 120.26 189.281 84.4608 222.372 63.5821C255.469 42.7 287.94 36.7612 311.971 50.6351Z" stroke="#3F83F8" stroke-width="0.25"/>
<path d="M26.7492 191.75C30.3712 164.24 54.8502 142.095 91.5648 128.55C128.274 115.007 177.181 110.077 229.584 116.976C281.988 123.875 327.953 141.295 359.906 163.877C391.863 186.463 409.777 214.19 406.155 241.7C402.533 269.211 378.054 291.357 341.339 304.902C304.631 318.445 255.723 323.375 203.32 316.476C150.916 309.577 104.951 292.156 72.9986 269.574C41.0405 246.988 23.1274 219.261 26.7492 191.75Z" stroke="#3F83F8" stroke-width="0.25"/>
<path d="M241.272 26.7482C268.783 30.3703 290.928 54.8492 304.473 91.5638C318.016 128.273 322.946 177.18 316.047 229.583C309.148 281.987 291.727 327.952 269.145 359.905C246.559 391.863 218.833 409.776 191.323 406.154C163.812 402.532 141.666 378.053 128.121 341.338C114.578 304.63 109.648 255.722 116.547 203.319C123.446 150.915 140.866 104.95 163.449 72.9976C186.035 41.0395 213.762 23.1264 241.272 26.7482Z" stroke="#3F83F8" stroke-width="0.25"/>
<path d="M64.724 333.111C47.8324 311.098 49.4825 278.129 65.8659 242.59C82.2467 207.057 113.343 168.988 155.276 136.812C197.209 104.635 242.03 84.4511 280.592 77.8252C319.16 71.1981 351.432 78.1371 368.324 100.151C385.216 122.165 383.566 155.134 367.183 190.673C350.802 226.206 319.705 264.275 277.772 296.451C235.839 328.628 191.019 348.812 152.457 355.438C113.888 362.065 81.6159 355.125 64.724 333.111Z" stroke="#3F83F8" stroke-width="0.25"/>
<path d="M99.7436 64.7447C121.758 47.8532 154.726 49.5032 190.265 65.8866C225.798 82.2674 263.867 113.364 296.043 155.297C328.22 197.23 348.404 242.051 355.03 280.613C361.657 319.181 354.718 351.453 332.704 368.345C310.69 385.237 277.721 383.587 242.182 367.204C206.649 350.823 168.58 319.726 136.404 277.793C104.227 235.86 84.0432 191.04 77.4172 152.478C70.7902 113.909 77.7297 81.6366 99.7436 64.7447Z" stroke="#3F83F8" stroke-width="0.25"/>
<path d="M158.682 34.024C185.145 25.6803 215.561 38.5067 243.353 66.0571C271.141 93.6031 296.279 135.845 312.173 186.254C328.067 236.663 331.704 285.684 324.741 324.187C317.777 362.696 300.219 390.648 273.756 398.992C247.292 407.336 216.876 394.51 189.083 366.959C161.296 339.413 136.158 297.172 120.264 246.762C104.37 196.353 100.733 147.333 107.695 108.83C114.659 70.3207 132.218 42.3679 158.682 34.024Z" stroke="#3F83F8" stroke-width="0.25"/>
<path d="M398.888 158.717C407.231 185.181 394.405 215.597 366.855 243.389C339.309 271.177 297.067 296.314 246.658 312.208C196.249 328.102 147.228 331.74 108.725 324.777C70.2161 317.813 42.2636 300.255 33.9195 273.792C25.5756 247.328 38.4017 216.911 65.9523 189.119C93.4983 161.331 135.74 136.194 186.149 120.3C236.558 104.406 285.579 100.769 324.082 107.731C362.591 114.695 390.544 132.254 398.888 158.717Z" stroke="#3F83F8" stroke-width="0.25"/>
<path d="M46.6257 128.305C59.4384 103.692 90.0152 91.2548 129.148 91.0838C168.275 90.9129 215.92 103.007 262.803 127.413C309.686 151.819 346.921 183.91 369.223 216.059C391.529 248.213 398.879 280.394 386.067 305.007C373.254 329.619 342.677 342.058 303.544 342.229C264.417 342.399 216.772 330.305 169.889 305.899C123.006 281.493 85.7709 249.402 63.4687 217.253C41.1628 185.099 33.8132 152.918 46.6257 128.305Z" stroke="#3F83F8" stroke-width="0.25"/>
<path d="M304.648 46.6257C329.26 59.4384 341.698 90.0152 341.869 129.148C342.04 168.275 329.946 215.92 305.54 262.803C281.134 309.686 249.043 346.921 216.894 369.223C184.74 391.529 152.559 398.879 127.946 386.067C103.334 373.254 90.8954 342.677 90.7244 303.544C90.5535 264.417 102.648 216.772 127.054 169.889C151.46 123.006 183.551 85.7709 215.7 63.4687C247.854 41.1628 280.035 33.8132 304.648 46.6257Z" stroke="#3F83F8" stroke-width="0.25"/>
<path d="M25.8515 200.047C28.2701 172.405 51.7598 149.213 87.8486 134.08C123.932 118.948 172.578 111.89 225.232 116.496C277.886 121.103 324.568 136.502 357.475 157.669C390.388 178.839 409.493 205.758 407.075 233.4C404.657 261.042 381.167 284.235 345.078 299.369C308.995 314.5 260.349 321.559 207.694 316.952C155.04 312.345 108.359 296.947 75.4515 275.78C42.5386 254.609 23.4331 227.69 25.8515 200.047Z" stroke="#3F83F8" stroke-width="0.25"/>
<path d="M232.975 25.8449C260.617 28.2635 283.809 51.7532 298.943 87.842C314.074 123.925 321.133 172.571 316.526 225.225C311.919 277.88 296.52 324.561 275.353 357.468C254.183 390.381 227.264 409.487 199.622 407.068C171.98 404.65 148.787 381.16 133.653 345.071C118.522 308.988 111.463 260.342 116.07 207.688C120.677 155.034 136.076 108.352 157.243 75.4449C178.413 42.532 205.333 23.4266 232.975 25.8449Z" stroke="#3F83F8" stroke-width="0.25"/>
<path d="M69.955 339.618C52.1193 318.362 52.3298 285.353 67.1474 249.133C81.9627 212.919 111.369 173.53 151.859 139.555C192.348 105.58 236.246 83.4602 274.482 75.1585C312.725 66.8555 345.269 72.3802 363.105 93.636C380.941 114.892 380.731 147.902 365.913 184.122C351.098 220.336 321.691 259.725 281.202 293.7C240.712 327.675 196.815 349.794 158.578 358.096C120.336 366.399 87.791 360.874 69.955 339.618Z" stroke="#3F83F8" stroke-width="0.25"/>
<path d="M93.2332 69.9789C114.489 52.1432 147.498 52.3537 183.718 67.1713C219.932 81.9866 259.321 111.393 293.296 151.883C327.271 192.372 349.391 236.27 357.692 274.506C365.995 312.749 360.471 345.293 339.215 363.129C317.959 380.965 284.949 380.755 248.729 365.937C212.515 351.122 173.126 321.715 139.151 281.225C105.177 240.736 83.0566 196.839 74.7549 158.602C66.4519 120.359 71.9771 87.815 93.2332 69.9789Z" stroke="#3F83F8" stroke-width="0.25"/>
<path d="M150.78 36.7163C176.855 27.2263 207.801 38.7137 236.768 65.0256C265.731 91.3333 292.687 132.438 310.765 182.106C328.843 231.774 334.615 280.59 329.338 319.359C324.061 358.135 307.739 386.827 281.664 396.318C255.59 405.808 224.643 394.321 195.675 368.009C166.712 341.701 139.756 300.596 121.678 250.928C103.601 201.26 97.8287 152.445 103.105 113.675C108.383 74.8987 124.706 46.2067 150.78 36.7163Z" stroke="#3F83F8" stroke-width="0.25"/>
<path d="M396.198 150.814C405.688 176.888 394.2 207.834 367.888 236.802C341.581 265.765 300.476 292.721 250.808 310.798C201.14 328.876 152.325 334.648 113.555 329.372C74.7787 324.094 46.0869 307.772 36.5965 281.698C27.1061 255.623 38.5933 224.676 64.9054 195.709C91.2131 166.746 132.318 139.79 181.986 121.712C231.654 103.634 280.469 97.8622 319.239 103.139C358.015 108.416 386.707 124.739 396.198 150.814Z" stroke="#3F83F8" stroke-width="0.25"/>
<path d="M42.9402 135.795C54.6671 110.647 84.6723 96.8879 123.761 95.0101C162.843 93.1326 210.969 103.137 258.873 125.475C306.776 147.813 345.375 178.249 369.059 209.394C392.746 240.545 401.492 272.375 389.766 297.523C378.039 322.671 348.034 336.431 308.945 338.309C269.863 340.186 221.736 330.181 173.833 307.844C125.93 285.506 87.3303 255.07 63.647 223.924C39.9598 192.774 31.2134 160.943 42.9402 135.795Z" stroke="#3F83F8" stroke-width="0.25"/>
<path d="M297.155 42.9395C322.303 54.6664 336.063 84.6716 337.941 123.76C339.818 162.842 329.813 210.969 307.476 258.872C285.138 306.775 254.702 345.375 223.556 369.058C192.406 392.745 160.576 401.492 135.428 389.765C110.28 378.038 96.5198 348.033 94.642 308.944C92.7646 269.862 102.769 221.735 125.107 173.832C147.445 125.929 177.881 87.3296 209.026 63.6463C240.177 39.959 272.007 31.2127 297.155 42.9395Z" stroke="#3F83F8" stroke-width="0.25"/>
<path d="M25.3178 208.376C26.5283 180.655 48.984 156.46 84.3784 139.767C119.767 123.076 168.059 113.902 220.864 116.208C273.669 118.513 320.978 131.861 354.777 151.573C388.582 171.287 408.843 197.347 407.633 225.068C406.423 252.79 383.967 276.985 348.573 293.679C313.184 310.369 264.892 319.543 212.087 317.238C159.282 314.932 111.973 301.584 78.1739 281.873C44.3689 262.158 24.1074 236.098 25.3178 208.376Z" stroke="#3F83F8" stroke-width="0.25"/>
<path d="M224.645 25.3048C252.366 26.5154 276.561 48.9711 293.254 84.3654C309.945 119.754 319.119 168.046 316.813 220.851C314.508 273.656 301.16 320.965 281.448 354.764C261.733 388.569 235.674 408.83 207.953 407.62C180.231 406.41 156.036 383.954 139.342 348.56C122.652 313.171 113.478 264.879 115.783 212.074C118.089 159.269 131.437 111.96 151.148 78.161C170.863 44.356 196.923 24.0945 224.645 25.3048Z" stroke="#3F83F8" stroke-width="0.25"/>
<path d="M75.4693 345.889C56.7234 325.432 55.4938 292.445 68.7174 255.613C81.939 218.788 109.599 178.153 148.568 142.444C187.538 106.736 230.428 82.7221 268.266 72.7605C306.11 62.7972 338.864 66.8971 357.61 87.3547C376.357 107.813 377.587 140.8 364.363 177.632C351.141 214.457 323.481 255.092 284.512 290.801C245.543 326.509 202.652 350.523 164.814 360.484C126.97 370.448 94.2155 366.347 75.4693 345.889Z" stroke="#3F83F8" stroke-width="0.25"/>
<path d="M86.9625 75.4922C107.42 56.7463 140.407 55.5167 177.239 68.7403C214.064 81.9619 254.699 109.622 290.407 148.591C326.116 187.561 350.13 230.451 360.091 268.289C370.055 306.133 365.955 338.887 345.497 357.633C325.039 376.38 292.052 377.61 255.22 364.386C218.394 351.164 177.76 323.504 142.051 284.535C106.343 245.566 82.3291 202.675 72.3675 164.837C62.4042 126.993 66.5046 94.2384 86.9625 75.4922Z" stroke="#3F83F8" stroke-width="0.25"/>
</svg>
